<mxfile host="app.diagrams.net" modified="2024-05-22T16:12:19.125Z" agent="Mozilla/5.0 (Windows NT 10.0; Win64; x64) AppleWebKit/537.36 (KHTML, like Gecko) Chrome/124.0.0.0 Safari/537.36" version="24.4.6" etag="KZh2qVb9OTQIdIG4HrjK" type="github">
  <diagram name="Page-1" id="ujIteeR5TrWr0P5d-Lq7">
    <mxGraphModel>
      <root>
        <mxCell id="0" />
        <mxCell id="1" parent="0" />
      </root>
    </mxGraphModel>
  </diagram>
</mxfile>
